<svg width="57" height="57" viewBox="0 0 57 57" fill="none" xmlns="http://www.w3.org/2000/svg">
<g clip-path="url(#clip0_372_2593)">
<path d="M0.498413 22.7312C0.498413 22.1361 0.711292 21.6491 1.08383 21.2163C1.45637 20.7834 1.98856 20.6211 2.57398 20.6211C3.15939 20.6211 3.63837 20.8375 4.06413 21.2163C4.48988 21.6491 4.64954 22.1361 4.64954 22.7312C4.64954 23.3264 4.43666 23.8675 4.06413 24.2462C3.69159 24.7332 3.15939 24.8955 2.57398 24.8955C1.98856 24.8955 1.50959 24.679 1.08383 24.2462C0.658072 23.8134 0.498413 23.3805 0.498413 22.7312ZM1.08383 22.7312C1.08383 23.2182 1.24349 23.5969 1.50959 23.8675C1.77568 24.1921 2.14822 24.3544 2.57398 24.3544C2.99974 24.3544 3.37227 24.1921 3.63837 23.8675C3.90447 23.5428 4.06413 23.1641 4.06413 22.7312C4.06413 22.2984 3.90447 21.9196 3.63837 21.595C3.37227 21.2704 2.99974 21.1622 2.57398 21.1622C2.14822 21.1622 1.77568 21.3245 1.50959 21.595C1.24349 21.9196 1.08383 22.2984 1.08383 22.7312Z" fill="white"/>
<path d="M6.24626 24.8411V21.216H4.86255V20.729H8.21539V21.216H6.83167V24.8411H6.24626Z" fill="white"/>
<path d="M8.85376 24.8411V20.729H9.43918V22.4604H10.0246L11.0358 20.729H11.6744L10.5036 22.6768L11.7808 24.8411H11.1422L10.0778 22.9474H9.49239V24.8411H8.85376Z" fill="white"/>
<path d="M12.4197 24.8411V20.729H13.9098C14.2824 20.729 14.6017 20.8372 14.8146 21.1077C15.0274 21.3783 15.1871 21.6488 15.1871 22.0276C15.1871 22.4063 15.0807 22.7309 14.8146 23.0015C14.6017 23.2179 14.2824 23.3802 13.9098 23.3802H13.0051V24.8952H12.4197V24.8411ZM12.9519 22.8391H13.8034C14.0695 22.8391 14.2291 22.785 14.3888 22.6227C14.5485 22.4604 14.6017 22.2981 14.6017 22.0276C14.6017 21.757 14.5485 21.5947 14.3888 21.4324C14.2291 21.2701 14.0695 21.216 13.8034 21.216H12.9519V22.8391Z" fill="white"/>
<path d="M15.8787 24.8411V20.729H16.4641V22.2981H17.3156C17.6881 22.2981 17.9542 22.4063 18.2203 22.6227C18.4332 22.8391 18.5396 23.1638 18.5396 23.5966C18.5396 23.9754 18.4332 24.3 18.2203 24.5164C18.0074 24.7329 17.6881 24.8411 17.3688 24.8411H15.8787ZM16.4641 24.3541H17.2624C17.4753 24.3541 17.6881 24.3 17.7946 24.1377C17.901 23.9754 18.0074 23.8131 18.0074 23.5966C18.0074 23.3802 17.9542 23.1638 17.7946 23.0015C17.6349 22.8391 17.4753 22.785 17.2624 22.785H16.4641V24.3541ZM19.0718 24.8411V20.729H19.6573V24.8411H19.0718Z" fill="white"/>
<path d="M21.6799 24.8411V21.216H20.2961V20.729H23.649V21.216H22.2653V24.8411H21.6799Z" fill="white"/>
<path d="M24.2876 24.8411V20.729H24.873V22.2981H25.7245C26.0971 22.2981 26.3632 22.4063 26.6293 22.6227C26.8421 22.8391 26.9486 23.1638 26.9486 23.5966C26.9486 23.9754 26.8421 24.3 26.6293 24.5164C26.4164 24.7329 26.0971 24.8411 25.7777 24.8411H24.2876ZM24.873 24.3541H25.6713C25.8842 24.3541 26.0971 24.3 26.2035 24.1377C26.3099 23.9754 26.4164 23.8131 26.4164 23.5966C26.4164 23.3802 26.3632 23.1638 26.2035 23.0015C26.0438 22.8391 25.8842 22.785 25.6713 22.785H24.9262L24.873 24.3541ZM27.4808 24.8411V20.729H28.0662V24.8411H27.4808Z" fill="white"/>
<path d="M29.1304 24.8412V20.7291H29.7158V23.4344L29.6626 24.0296C29.8222 23.759 29.9287 23.5426 29.9819 23.4344L31.7914 20.7832H32.3235V24.8953H31.7381V22.19L31.7914 21.5948C31.6849 21.8653 31.5253 22.0276 31.472 22.19L29.6626 24.8953L29.1304 24.8412ZM30.7802 20.5127C30.5673 20.5127 30.3544 20.4586 30.1948 20.2962C30.0351 20.1339 29.9287 19.9716 29.9287 19.7552V19.647H30.3544V19.7552C30.3544 19.8634 30.4076 19.9716 30.4609 20.0257C30.5673 20.0798 30.6205 20.1339 30.727 20.1339C30.8334 20.1339 30.9398 20.0798 30.9931 20.0257C31.0995 19.9716 31.0995 19.8634 31.0995 19.7552V19.7011H31.5253V19.8093C31.5253 20.0257 31.4188 20.2421 31.2592 20.3504C31.2059 20.4586 31.0463 20.5127 30.7802 20.5127Z" fill="white"/>
<path d="M0.711182 35.501V26.7358H5.44773V27.818H1.88201V35.501H0.711182Z" fill="white"/>
<path d="M5.82031 31.064C5.82031 29.8196 6.24607 28.7375 7.09758 27.8718C7.9491 27.0061 9.01349 26.5732 10.2375 26.5732C11.4616 26.5732 12.526 27.0061 13.3775 27.8718C14.229 28.7375 14.6548 29.7655 14.6548 31.064C14.6548 32.3626 14.229 33.4447 13.3775 34.3104C12.526 35.1761 11.4616 35.6631 10.2375 35.6631C9.01349 35.6631 7.9491 35.2302 7.09758 34.3104C6.24607 33.4447 5.82031 32.3085 5.82031 31.064ZM7.04436 31.064C7.04436 32.038 7.36368 32.8495 7.9491 33.4988C8.58773 34.1481 9.33281 34.4727 10.1843 34.4727C11.0891 34.4727 11.8341 34.1481 12.4195 33.4988C13.0582 32.8495 13.3243 32.038 13.3243 31.064C13.3243 30.1442 13.005 29.3327 12.4195 28.6834C11.8873 28.0341 11.1423 27.7095 10.2375 27.7095C9.33281 27.7095 8.58773 28.0341 8.00232 28.6834C7.36368 29.3327 7.04436 30.0901 7.04436 31.064Z" fill="white"/>
<path d="M16.4109 35.501V26.7358H19.5508C20.3491 26.7358 20.9878 27.0064 21.52 27.4933C21.9989 27.9803 22.265 28.6296 22.265 29.4952C22.265 30.3068 21.9989 31.0102 21.52 31.4972C21.041 31.9841 20.3491 32.2547 19.6041 32.2547H17.6349V35.501H16.4109ZM17.5817 31.1725H19.338C19.8702 31.1725 20.2427 31.0102 20.562 30.7397C20.8813 30.4151 20.9878 30.0363 20.9878 29.4952C20.9878 28.9542 20.8281 28.5754 20.562 28.2508C20.2427 27.9803 19.8702 27.818 19.338 27.818H17.5817V31.1725Z" fill="white"/>
<path d="M23.2231 31.064C23.2231 29.8196 23.6489 28.7375 24.5004 27.8718C25.3519 27.0061 26.4163 26.5732 27.6404 26.5732C28.8644 26.5732 29.9288 27.0061 30.7803 27.8718C31.6318 28.7375 32.0576 29.7655 32.0576 31.064C32.0576 32.3626 31.6318 33.4447 30.7803 34.3104C29.9288 35.1761 28.8644 35.6631 27.6404 35.6631C26.4163 35.6631 25.3519 35.2302 24.5004 34.3104C23.6489 33.4447 23.2231 32.3085 23.2231 31.064ZM24.4472 31.064C24.4472 32.038 24.7665 32.8495 25.3519 33.4988C25.9906 34.1481 26.7356 34.4727 27.5872 34.4727C28.4919 34.4727 29.237 34.1481 29.8224 33.4988C30.461 32.8495 30.7271 32.038 30.7271 31.064C30.7271 30.1442 30.4078 29.3327 29.8224 28.6834C29.2902 28.0341 28.5451 27.7095 27.6404 27.7095C26.7356 27.7095 25.9906 28.0341 25.4051 28.6834C24.7665 29.3327 24.4472 30.0901 24.4472 31.064Z" fill="white"/>
<path d="M32.4302 34.4189H33.2817C33.8139 33.6614 34.1864 32.7957 34.3461 31.7677C34.5057 30.7938 34.6122 29.7117 34.6122 28.5213V26.7358H39.668V34.4189H40.626V37.2324H39.5616V35.501H33.5478V37.2324H32.4302V34.4189ZM34.559 34.4189H38.4972V27.818H35.783V28.6296C35.783 31.2266 35.3573 33.1745 34.559 34.4189Z" fill="white"/>
<path d="M31.2062 2.82031C20.4558 2.82031 11.3553 9.69178 7.78955 19.3227H17.8481C20.7219 14.9401 25.5649 12.0725 31.0997 12.0725C39.881 12.0725 47.0124 19.3227 47.0124 28.2502C47.0656 37.2318 39.9342 44.482 31.0997 44.482C25.5117 44.482 20.5623 41.5062 17.7416 37.0154H7.78955C11.302 46.6462 20.4558 53.5177 31.2062 53.5177C44.9901 53.5177 56.1662 42.1554 56.1662 28.142C56.1662 14.1285 44.9901 2.82031 31.2062 2.82031Z" fill="#A8D118"/>
</g>
<defs>
<clipPath id="clip0_372_2593">
<rect width="56" height="56" fill="white" transform="translate(0.332275 0.168945)"/>
</clipPath>
</defs>
</svg>
