<svg width="28" height="28" viewBox="0 0 28 28" fill="none" xmlns="http://www.w3.org/2000/svg">
<path d="M0 14C0 6.26801 6.26801 0 14 0C21.732 0 28 6.26801 28 14C28 21.732 21.732 28 14 28C6.26801 28 0 21.732 0 14Z" fill="#BFCEEC"/>
<path d="M10.1909 13.1433C11.2105 15.147 12.8531 16.7825 14.8567 17.8091L16.4144 16.2515C16.6055 16.0603 16.8887 15.9966 17.1365 16.0815C17.9295 16.3435 18.7862 16.4851 19.6641 16.4851C20.0535 16.4851 20.3721 16.8037 20.3721 17.1931V19.6641C20.3721 20.0535 20.0535 20.3721 19.6641 20.3721C13.0159 20.3721 7.62793 14.9841 7.62793 8.33588C7.62793 7.94647 7.94654 7.62787 8.33594 7.62787H10.814C11.2034 7.62787 11.522 7.94647 11.522 8.33588C11.522 9.2209 11.6636 10.0705 11.9256 10.8635C12.0034 11.1113 11.9468 11.3874 11.7486 11.5857L10.1909 13.1433Z" fill="#063666"/>
</svg>
