<svg width="28" height="28" viewBox="0 0 28 28" fill="none" xmlns="http://www.w3.org/2000/svg">
<path d="M0 14C0 6.26801 6.26801 0 14 0C21.732 0 28 6.26801 28 14C28 21.732 21.732 28 14 28C6.26801 28 0 21.732 0 14Z" fill="#BFCEEC"/>
<path d="M19.1335 8.86621H8.8665C8.16065 8.86621 7.58955 9.44373 7.58955 10.1496L7.58313 17.8498C7.58313 18.5557 8.16065 19.1332 8.8665 19.1332H19.1335C19.8393 19.1332 20.4169 18.5557 20.4169 17.8498V10.1496C20.4169 9.44373 19.8393 8.86621 19.1335 8.86621ZM19.1335 11.433L14 14.6414L8.8665 11.433V10.1496L14 13.358L19.1335 10.1496V11.433Z" fill="#063666"/>
</svg>
