<svg width="28" height="28" viewBox="0 0 28 28" fill="none" xmlns="http://www.w3.org/2000/svg">
<path d="M0 14C0 6.26801 6.26801 0 14 0C21.732 0 28 6.26801 28 14C28 21.732 21.732 28 14 28C6.26801 28 0 21.732 0 14Z" fill="#BFCEEC"/>
<path d="M13.8027 6.16196C10.7736 6.16196 8.32373 8.61527 8.32373 11.6486C8.32373 15.7636 13.8027 21.8381 13.8027 21.8381C13.8027 21.8381 19.2816 15.7636 19.2816 11.6486C19.2816 8.61527 16.8318 6.16196 13.8027 6.16196ZM13.8027 13.6081C12.7226 13.6081 11.8459 12.7302 11.8459 11.6486C11.8459 10.5669 12.7226 9.68908 13.8027 9.68908C14.8828 9.68908 15.7595 10.5669 15.7595 11.6486C15.7595 12.7302 14.8828 13.6081 13.8027 13.6081Z" fill="#063666"/>
</svg>
