<svg width="11" height="11" viewBox="0 0 11 11" fill="none" xmlns="http://www.w3.org/2000/svg">
<path d="M10.5777 9.98016L8.59433 8.00266C9.23424 7.18743 9.58145 6.18071 9.58016 5.14433C9.58016 4.22135 9.30647 3.3191 8.79369 2.55167C8.28091 1.78424 7.55207 1.1861 6.69935 0.832892C5.84663 0.479683 4.90832 0.387268 4.00307 0.567332C3.09783 0.747396 2.26631 1.19185 1.61366 1.8445C0.961018 2.49714 0.516561 3.32866 0.336497 4.23391C0.156433 5.13915 0.248848 6.07746 0.602057 6.93019C0.955266 7.78291 1.5534 8.51174 2.32083 9.02452C3.08826 9.5373 3.99052 9.811 4.9135 9.811C5.94988 9.81229 6.95659 9.46507 7.77183 8.82516L9.74933 10.8085C9.80356 10.8632 9.86807 10.9066 9.93916 10.9362C10.0102 10.9658 10.0865 10.981 10.1635 10.981C10.2405 10.981 10.3167 10.9658 10.3878 10.9362C10.4589 10.9066 10.5234 10.8632 10.5777 10.8085C10.6323 10.7543 10.6757 10.6898 10.7053 10.6187C10.735 10.5476 10.7502 10.4713 10.7502 10.3943C10.7502 10.3173 10.735 10.2411 10.7053 10.17C10.6757 10.0989 10.6323 10.0344 10.5777 9.98016ZM1.41349 5.14433C1.41349 4.4521 1.61877 3.77541 2.00335 3.19983C2.38794 2.62426 2.93456 2.17566 3.5741 1.91075C4.21364 1.64584 4.91738 1.57653 5.59631 1.71158C6.27524 1.84663 6.89888 2.17997 7.38837 2.66946C7.87785 3.15894 8.2112 3.78258 8.34624 4.46151C8.48129 5.14045 8.41198 5.84418 8.14707 6.48372C7.88217 7.12326 7.43356 7.66989 6.85799 8.05447C6.28242 8.43906 5.60573 8.64433 4.9135 8.64433C3.98524 8.64433 3.095 8.27558 2.43862 7.6192C1.78224 6.96283 1.41349 6.07259 1.41349 5.14433Z" fill="white"/>
</svg>
