<svg width="20" height="19" viewBox="0 0 20 19" fill="none" xmlns="http://www.w3.org/2000/svg">
<path d="M18.7071 16.7871L15.3071 13.3971C16.4041 11.9996 16.9993 10.2738 16.9971 8.49711C16.9971 6.91486 16.5279 5.36814 15.6488 4.05254C14.7698 2.73695 13.5204 1.71157 12.0585 1.10607C10.5967 0.500567 8.9882 0.34214 7.43635 0.650822C5.8845 0.959504 4.45904 1.72143 3.34022 2.84025C2.2214 3.95907 1.45947 5.38453 1.15079 6.93638C0.84211 8.48823 1.00054 10.0968 1.60604 11.5586C2.21154 13.0204 3.23692 14.2698 4.55251 15.1489C5.86811 16.0279 7.41482 16.4971 8.99708 16.4971C10.7737 16.4993 12.4995 15.9041 13.8971 14.8071L17.2871 18.2071C17.38 18.3008 17.4906 18.3752 17.6125 18.426C17.7344 18.4768 17.8651 18.5029 17.9971 18.5029C18.1291 18.5029 18.2598 18.4768 18.3817 18.426C18.5035 18.3752 18.6141 18.3008 18.7071 18.2071C18.8008 18.1141 18.8752 18.0035 18.926 17.8817C18.9767 17.7598 19.0029 17.6291 19.0029 17.4971C19.0029 17.3651 18.9767 17.2344 18.926 17.1125C18.8752 16.9907 18.8008 16.8801 18.7071 16.7871ZM2.99707 8.49711C2.99707 7.31042 3.34897 6.15038 4.00826 5.16368C4.66755 4.17699 5.60462 3.40795 6.70097 2.95383C7.79733 2.4997 9.00373 2.38088 10.1676 2.61239C11.3315 2.8439 12.4006 3.41535 13.2397 4.25446C14.0788 5.09358 14.6503 6.16268 14.8818 7.32656C15.1133 8.49045 14.9945 9.69685 14.5404 10.7932C14.0862 11.8896 13.3172 12.8266 12.3305 13.4859C11.3438 14.1452 10.1838 14.4971 8.99708 14.4971C7.40578 14.4971 5.87965 13.865 4.75443 12.7397C3.62922 11.6145 2.99707 10.0884 2.99707 8.49711Z" fill="#3C64B1"/>
</svg>
